<svg width="81" height="25" viewBox="0 0 81 25" fill="none" xmlns="http://www.w3.org/2000/svg">
<mask id="path-1-outside-1_28_2" maskUnits="userSpaceOnUse" x="7" y="7" width="67" height="11" fill="black">
<rect fill="white" x="7" y="7" width="67" height="11"/>
<path d="M14.368 17H8.26C8.108 17 7.996 16.968 7.924 16.904C7.86 16.832 7.828 16.72 7.828 16.568V8.792C7.828 8.64 7.86 8.532 7.924 8.468C7.996 8.396 8.108 8.36 8.26 8.36H10.12C10.272 8.36 10.38 8.396 10.444 8.468C10.516 8.532 10.552 8.64 10.552 8.792V14.732H12.196V12.788C12.196 12.636 12.228 12.528 12.292 12.464C12.364 12.392 12.476 12.356 12.628 12.356H14.368C14.52 12.356 14.628 12.392 14.692 12.464C14.764 12.528 14.8 12.636 14.8 12.788V16.568C14.8 16.72 14.764 16.832 14.692 16.904C14.628 16.968 14.52 17 14.368 17ZM22.1718 17H16.6038C16.4518 17 16.3398 16.968 16.2678 16.904C16.2038 16.832 16.1718 16.72 16.1718 16.568V8.792C16.1718 8.64 16.2038 8.532 16.2678 8.468C16.3398 8.396 16.4518 8.36 16.6038 8.36H22.1718C22.3238 8.36 22.4318 8.396 22.4958 8.468C22.5678 8.532 22.6038 8.64 22.6038 8.792V10.196C22.6038 10.348 22.5678 10.46 22.4958 10.532C22.4318 10.596 22.3238 10.628 22.1718 10.628H18.8598V11.552H21.1998C21.3518 11.552 21.4598 11.588 21.5238 11.66C21.5958 11.724 21.6318 11.832 21.6318 11.984V13.268C21.6318 13.42 21.5958 13.532 21.5238 13.604C21.4598 13.668 21.3518 13.7 21.1998 13.7H18.8598V14.732H22.1718C22.3238 14.732 22.4318 14.768 22.4958 14.84C22.5678 14.904 22.6038 15.012 22.6038 15.164V16.568C22.6038 16.72 22.5678 16.832 22.4958 16.904C22.4318 16.968 22.3238 17 22.1718 17ZM30.5633 17H24.4553C24.3033 17 24.1913 16.968 24.1193 16.904C24.0553 16.832 24.0233 16.72 24.0233 16.568V8.792C24.0233 8.64 24.0553 8.532 24.1193 8.468C24.1913 8.396 24.3033 8.36 24.4553 8.36H26.3153C26.4673 8.36 26.5753 8.396 26.6393 8.468C26.7113 8.532 26.7473 8.64 26.7473 8.792V14.732H28.3913V12.788C28.3913 12.636 28.4233 12.528 28.4873 12.464C28.5593 12.392 28.6713 12.356 28.8233 12.356H30.5633C30.7153 12.356 30.8233 12.392 30.8873 12.464C30.9593 12.528 30.9953 12.636 30.9953 12.788V16.568C30.9953 16.72 30.9593 16.832 30.8873 16.904C30.8233 16.968 30.7153 17 30.5633 17ZM38.3671 17H32.7991C32.6471 17 32.5351 16.968 32.4631 16.904C32.3991 16.832 32.3671 16.72 32.3671 16.568V8.792C32.3671 8.64 32.3991 8.532 32.4631 8.468C32.5351 8.396 32.6471 8.36 32.7991 8.36H38.3671C38.5191 8.36 38.6271 8.396 38.6911 8.468C38.7631 8.532 38.7991 8.64 38.7991 8.792V10.196C38.7991 10.348 38.7631 10.46 38.6911 10.532C38.6271 10.596 38.5191 10.628 38.3671 10.628H35.0551V11.552H37.3951C37.5471 11.552 37.6551 11.588 37.7191 11.66C37.7911 11.724 37.8271 11.832 37.8271 11.984V13.268C37.8271 13.42 37.7911 13.532 37.7191 13.604C37.6551 13.668 37.5471 13.7 37.3951 13.7H35.0551V14.732H38.3671C38.5191 14.732 38.6271 14.768 38.6911 14.84C38.7631 14.904 38.7991 15.012 38.7991 15.164V16.568C38.7991 16.72 38.7631 16.832 38.6911 16.904C38.6271 16.968 38.5191 17 38.3671 17Z"/>
<path d="M42.5106 17H40.6506C40.4986 17 40.3866 16.968 40.3146 16.904C40.2506 16.832 40.2186 16.72 40.2186 16.568V8.792C40.2186 8.64 40.2506 8.532 40.3146 8.468C40.3866 8.396 40.4986 8.36 40.6506 8.36H42.5106C42.6626 8.36 42.7706 8.396 42.8346 8.468C42.9066 8.532 42.9426 8.64 42.9426 8.792V11.552H43.4226L44.6586 8.756C44.7146 8.612 44.7906 8.512 44.8866 8.456C44.9826 8.392 45.1066 8.36 45.2586 8.36H47.1066C47.2426 8.36 47.3346 8.396 47.3826 8.468C47.4306 8.532 47.4266 8.628 47.3706 8.756L46.1466 11.552C46.5946 11.576 46.9506 11.736 47.2146 12.032C47.4866 12.32 47.6226 12.704 47.6226 13.184V16.568C47.6226 16.72 47.5866 16.832 47.5146 16.904C47.4506 16.968 47.3426 17 47.1906 17H45.3426C45.1906 17 45.0786 16.968 45.0066 16.904C44.9426 16.832 44.9106 16.72 44.9106 16.568V14.228C44.9106 14.1 44.8786 14 44.8146 13.928C44.7506 13.856 44.6546 13.82 44.5266 13.82H42.9426V16.568C42.9426 16.72 42.9066 16.832 42.8346 16.904C42.7706 16.968 42.6626 17 42.5106 17ZM52.3038 10.88L51.7398 12.704H53.6238L53.0598 10.88C53.0278 10.808 52.9918 10.756 52.9518 10.724C52.9198 10.692 52.8798 10.676 52.8318 10.676H52.5318C52.4838 10.676 52.4398 10.692 52.3998 10.724C52.3678 10.756 52.3358 10.808 52.3038 10.88ZM51.6198 16.568C51.6198 16.72 51.5838 16.832 51.5117 16.904C51.4478 16.968 51.3398 17 51.1878 17H49.4238C49.2718 17 49.1598 16.968 49.0878 16.904C49.0238 16.832 48.9918 16.72 48.9918 16.568V13.4C48.9918 13.16 49.0278 12.884 49.0998 12.572C49.1798 12.26 49.2998 11.896 49.4598 11.48L50.5038 8.756C50.5518 8.62 50.6238 8.52 50.7198 8.456C50.8238 8.392 50.9558 8.36 51.1158 8.36H54.3438C54.4958 8.36 54.6198 8.392 54.7158 8.456C54.8198 8.52 54.8958 8.62 54.9438 8.756L55.9878 11.48C56.1478 11.896 56.2638 12.26 56.3358 12.572C56.4158 12.884 56.4558 13.16 56.4558 13.4V16.568C56.4558 16.72 56.4198 16.832 56.3478 16.904C56.2838 16.968 56.1758 17 56.0238 17H54.2118C54.0518 17 53.9318 16.968 53.8518 16.904C53.7798 16.832 53.7438 16.72 53.7438 16.568V14.888H51.6198V16.568ZM60.6494 10.52V12.056H61.5494C61.7574 12.056 61.8974 12.004 61.9694 11.9C62.0414 11.788 62.0774 11.652 62.0774 11.492V11.084C62.0774 10.924 62.0414 10.792 61.9694 10.688C61.8974 10.576 61.7574 10.52 61.5494 10.52H60.6494ZM60.2174 17H58.3694C58.2174 17 58.1054 16.968 58.0334 16.904C57.9694 16.832 57.9374 16.72 57.9374 16.568V8.792C57.9374 8.64 57.9694 8.532 58.0334 8.468C58.1054 8.396 58.2174 8.36 58.3694 8.36H62.3654C63.2614 8.36 63.8774 8.548 64.2134 8.924C64.5574 9.292 64.7294 9.772 64.7294 10.364V10.916C64.7294 11.252 64.6774 11.54 64.5734 11.78C64.4774 12.012 64.3054 12.18 64.0574 12.284C64.4894 12.332 64.8374 12.508 65.1014 12.812C65.3734 13.116 65.5094 13.52 65.5094 14.024V16.568C65.5094 16.72 65.4734 16.832 65.4014 16.904C65.3374 16.968 65.2294 17 65.0774 17H63.2174C63.0654 17 62.9534 16.968 62.8814 16.904C62.8174 16.832 62.7854 16.72 62.7854 16.568V14.732C62.7854 14.556 62.7494 14.428 62.6774 14.348C62.6134 14.26 62.4974 14.216 62.3294 14.216H60.6494V16.568C60.6494 16.72 60.6134 16.832 60.5414 16.904C60.4774 16.968 60.3694 17 60.2174 17ZM70.5721 17H68.6281C68.4761 17 68.3641 16.968 68.2921 16.904C68.2281 16.832 68.1961 16.72 68.1961 16.568V10.676H66.4321C66.2801 10.676 66.1681 10.644 66.0961 10.58C66.0321 10.508 66.0001 10.396 66.0001 10.244V8.792C66.0001 8.64 66.0321 8.532 66.0961 8.468C66.1681 8.396 66.2801 8.36 66.4321 8.36H72.7681C72.9201 8.36 73.0281 8.396 73.0921 8.468C73.1641 8.532 73.2001 8.64 73.2001 8.792V10.244C73.2001 10.396 73.1641 10.508 73.0921 10.58C73.0281 10.644 72.9201 10.676 72.7681 10.676H71.0041V16.568C71.0041 16.72 70.9681 16.832 70.8961 16.904C70.8321 16.968 70.7241 17 70.5721 17Z"/>
</mask>
<path d="M14.368 17H8.26C8.108 17 7.996 16.968 7.924 16.904C7.86 16.832 7.828 16.72 7.828 16.568V8.792C7.828 8.64 7.86 8.532 7.924 8.468C7.996 8.396 8.108 8.36 8.26 8.36H10.12C10.272 8.36 10.38 8.396 10.444 8.468C10.516 8.532 10.552 8.64 10.552 8.792V14.732H12.196V12.788C12.196 12.636 12.228 12.528 12.292 12.464C12.364 12.392 12.476 12.356 12.628 12.356H14.368C14.52 12.356 14.628 12.392 14.692 12.464C14.764 12.528 14.8 12.636 14.8 12.788V16.568C14.8 16.72 14.764 16.832 14.692 16.904C14.628 16.968 14.52 17 14.368 17ZM22.1718 17H16.6038C16.4518 17 16.3398 16.968 16.2678 16.904C16.2038 16.832 16.1718 16.72 16.1718 16.568V8.792C16.1718 8.64 16.2038 8.532 16.2678 8.468C16.3398 8.396 16.4518 8.36 16.6038 8.36H22.1718C22.3238 8.36 22.4318 8.396 22.4958 8.468C22.5678 8.532 22.6038 8.64 22.6038 8.792V10.196C22.6038 10.348 22.5678 10.46 22.4958 10.532C22.4318 10.596 22.3238 10.628 22.1718 10.628H18.8598V11.552H21.1998C21.3518 11.552 21.4598 11.588 21.5238 11.66C21.5958 11.724 21.6318 11.832 21.6318 11.984V13.268C21.6318 13.42 21.5958 13.532 21.5238 13.604C21.4598 13.668 21.3518 13.7 21.1998 13.7H18.8598V14.732H22.1718C22.3238 14.732 22.4318 14.768 22.4958 14.84C22.5678 14.904 22.6038 15.012 22.6038 15.164V16.568C22.6038 16.72 22.5678 16.832 22.4958 16.904C22.4318 16.968 22.3238 17 22.1718 17ZM30.5633 17H24.4553C24.3033 17 24.1913 16.968 24.1193 16.904C24.0553 16.832 24.0233 16.72 24.0233 16.568V8.792C24.0233 8.64 24.0553 8.532 24.1193 8.468C24.1913 8.396 24.3033 8.36 24.4553 8.36H26.3153C26.4673 8.36 26.5753 8.396 26.6393 8.468C26.7113 8.532 26.7473 8.64 26.7473 8.792V14.732H28.3913V12.788C28.3913 12.636 28.4233 12.528 28.4873 12.464C28.5593 12.392 28.6713 12.356 28.8233 12.356H30.5633C30.7153 12.356 30.8233 12.392 30.8873 12.464C30.9593 12.528 30.9953 12.636 30.9953 12.788V16.568C30.9953 16.72 30.9593 16.832 30.8873 16.904C30.8233 16.968 30.7153 17 30.5633 17ZM38.3671 17H32.7991C32.6471 17 32.5351 16.968 32.4631 16.904C32.3991 16.832 32.3671 16.72 32.3671 16.568V8.792C32.3671 8.64 32.3991 8.532 32.4631 8.468C32.5351 8.396 32.6471 8.36 32.7991 8.36H38.3671C38.5191 8.36 38.6271 8.396 38.6911 8.468C38.7631 8.532 38.7991 8.64 38.7991 8.792V10.196C38.7991 10.348 38.7631 10.46 38.6911 10.532C38.6271 10.596 38.5191 10.628 38.3671 10.628H35.0551V11.552H37.3951C37.5471 11.552 37.6551 11.588 37.7191 11.66C37.7911 11.724 37.8271 11.832 37.8271 11.984V13.268C37.8271 13.42 37.7911 13.532 37.7191 13.604C37.6551 13.668 37.5471 13.7 37.3951 13.7H35.0551V14.732H38.3671C38.5191 14.732 38.6271 14.768 38.6911 14.84C38.7631 14.904 38.7991 15.012 38.7991 15.164V16.568C38.7991 16.72 38.7631 16.832 38.6911 16.904C38.6271 16.968 38.5191 17 38.3671 17Z" fill="white"/>
<path d="M42.5106 17H40.6506C40.4986 17 40.3866 16.968 40.3146 16.904C40.2506 16.832 40.2186 16.72 40.2186 16.568V8.792C40.2186 8.64 40.2506 8.532 40.3146 8.468C40.3866 8.396 40.4986 8.36 40.6506 8.36H42.5106C42.6626 8.36 42.7706 8.396 42.8346 8.468C42.9066 8.532 42.9426 8.64 42.9426 8.792V11.552H43.4226L44.6586 8.756C44.7146 8.612 44.7906 8.512 44.8866 8.456C44.9826 8.392 45.1066 8.36 45.2586 8.36H47.1066C47.2426 8.36 47.3346 8.396 47.3826 8.468C47.4306 8.532 47.4266 8.628 47.3706 8.756L46.1466 11.552C46.5946 11.576 46.9506 11.736 47.2146 12.032C47.4866 12.32 47.6226 12.704 47.6226 13.184V16.568C47.6226 16.72 47.5866 16.832 47.5146 16.904C47.4506 16.968 47.3426 17 47.1906 17H45.3426C45.1906 17 45.0786 16.968 45.0066 16.904C44.9426 16.832 44.9106 16.72 44.9106 16.568V14.228C44.9106 14.1 44.8786 14 44.8146 13.928C44.7506 13.856 44.6546 13.82 44.5266 13.82H42.9426V16.568C42.9426 16.72 42.9066 16.832 42.8346 16.904C42.7706 16.968 42.6626 17 42.5106 17ZM52.3038 10.88L51.7398 12.704H53.6238L53.0598 10.88C53.0278 10.808 52.9918 10.756 52.9518 10.724C52.9198 10.692 52.8798 10.676 52.8318 10.676H52.5318C52.4838 10.676 52.4398 10.692 52.3998 10.724C52.3678 10.756 52.3358 10.808 52.3038 10.88ZM51.6198 16.568C51.6198 16.72 51.5838 16.832 51.5117 16.904C51.4478 16.968 51.3398 17 51.1878 17H49.4238C49.2718 17 49.1598 16.968 49.0878 16.904C49.0238 16.832 48.9918 16.72 48.9918 16.568V13.4C48.9918 13.16 49.0278 12.884 49.0998 12.572C49.1798 12.26 49.2998 11.896 49.4598 11.48L50.5038 8.756C50.5518 8.62 50.6238 8.52 50.7198 8.456C50.8238 8.392 50.9558 8.36 51.1158 8.36H54.3438C54.4958 8.36 54.6198 8.392 54.7158 8.456C54.8198 8.52 54.8958 8.62 54.9438 8.756L55.9878 11.48C56.1478 11.896 56.2638 12.26 56.3358 12.572C56.4158 12.884 56.4558 13.16 56.4558 13.4V16.568C56.4558 16.72 56.4198 16.832 56.3478 16.904C56.2838 16.968 56.1758 17 56.0238 17H54.2118C54.0518 17 53.9318 16.968 53.8518 16.904C53.7798 16.832 53.7438 16.72 53.7438 16.568V14.888H51.6198V16.568ZM60.6494 10.52V12.056H61.5494C61.7574 12.056 61.8974 12.004 61.9694 11.9C62.0414 11.788 62.0774 11.652 62.0774 11.492V11.084C62.0774 10.924 62.0414 10.792 61.9694 10.688C61.8974 10.576 61.7574 10.52 61.5494 10.52H60.6494ZM60.2174 17H58.3694C58.2174 17 58.1054 16.968 58.0334 16.904C57.9694 16.832 57.9374 16.72 57.9374 16.568V8.792C57.9374 8.64 57.9694 8.532 58.0334 8.468C58.1054 8.396 58.2174 8.36 58.3694 8.36H62.3654C63.2614 8.36 63.8774 8.548 64.2134 8.924C64.5574 9.292 64.7294 9.772 64.7294 10.364V10.916C64.7294 11.252 64.6774 11.54 64.5734 11.78C64.4774 12.012 64.3054 12.18 64.0574 12.284C64.4894 12.332 64.8374 12.508 65.1014 12.812C65.3734 13.116 65.5094 13.52 65.5094 14.024V16.568C65.5094 16.72 65.4734 16.832 65.4014 16.904C65.3374 16.968 65.2294 17 65.0774 17H63.2174C63.0654 17 62.9534 16.968 62.8814 16.904C62.8174 16.832 62.7854 16.72 62.7854 16.568V14.732C62.7854 14.556 62.7494 14.428 62.6774 14.348C62.6134 14.26 62.4974 14.216 62.3294 14.216H60.6494V16.568C60.6494 16.72 60.6134 16.832 60.5414 16.904C60.4774 16.968 60.3694 17 60.2174 17ZM70.5721 17H68.6281C68.4761 17 68.3641 16.968 68.2921 16.904C68.2281 16.832 68.1961 16.72 68.1961 16.568V10.676H66.4321C66.2801 10.676 66.1681 10.644 66.0961 10.58C66.0321 10.508 66.0001 10.396 66.0001 10.244V8.792C66.0001 8.64 66.0321 8.532 66.0961 8.468C66.1681 8.396 66.2801 8.36 66.4321 8.36H72.7681C72.9201 8.36 73.0281 8.396 73.0921 8.468C73.1641 8.532 73.2001 8.64 73.2001 8.792V10.244C73.2001 10.396 73.1641 10.508 73.0921 10.58C73.0281 10.644 72.9201 10.676 72.7681 10.676H71.0041V16.568C71.0041 16.72 70.9681 16.832 70.8961 16.904C70.8321 16.968 70.7241 17 70.5721 17Z" fill="#FF4646"/>
<path d="M7.924 16.904L7.5503 17.2362L7.56984 17.2582L7.59182 17.2777L7.924 16.904ZM7.924 8.468L7.57045 8.11445L7.57045 8.11445L7.924 8.468ZM10.444 8.468L10.0703 8.80018L10.0898 8.82216L10.1118 8.8417L10.444 8.468ZM10.552 14.732H10.052V15.232H10.552V14.732ZM12.196 14.732V15.232H12.696V14.732H12.196ZM12.292 12.464L11.9384 12.1104L11.9384 12.1104L12.292 12.464ZM14.692 12.464L14.3183 12.7962L14.3378 12.8182L14.3598 12.8377L14.692 12.464ZM14.692 16.904L15.0456 17.2576L15.0456 17.2576L14.692 16.904ZM14.368 16.5H8.26V17.5H14.368V16.5ZM8.26 16.5C8.23933 16.5 8.22412 16.4989 8.21367 16.4976C8.20319 16.4964 8.19883 16.4951 8.19936 16.4952C8.20065 16.4956 8.22559 16.5031 8.25618 16.5303L7.59182 17.2777C7.79555 17.4588 8.05289 17.5 8.26 17.5V16.5ZM8.2977 16.5718C8.3249 16.6024 8.33239 16.6273 8.33276 16.6286C8.33291 16.6292 8.33164 16.6248 8.33037 16.6143C8.3291 16.6039 8.328 16.5887 8.328 16.568H7.328C7.328 16.7751 7.3692 17.0325 7.5503 17.2362L8.2977 16.5718ZM8.328 16.568V8.792H7.328V16.568H8.328ZM8.328 8.792C8.328 8.77126 8.32911 8.75666 8.33026 8.74733C8.33141 8.73793 8.33239 8.73571 8.3314 8.73904C8.32943 8.7457 8.31719 8.78192 8.27755 8.82155L7.57045 8.11445C7.36612 8.31877 7.328 8.59229 7.328 8.792H8.328ZM8.27755 8.82155C8.26411 8.835 8.2505 8.84497 8.2386 8.85196C8.22694 8.8588 8.21838 8.86193 8.215 8.86301C8.20955 8.86477 8.2216 8.86 8.26 8.86V7.86C8.04009 7.86 7.77375 7.91115 7.57045 8.11445L8.27755 8.82155ZM8.26 8.86H10.12V7.86H8.26V8.86ZM10.12 8.86C10.1591 8.86 10.1677 8.86495 10.1569 8.86134C10.143 8.85671 10.1063 8.84063 10.0703 8.80018L10.8177 8.13582C10.6156 7.90848 10.3334 7.86 10.12 7.86V8.86ZM10.1118 8.8417C10.0714 8.80575 10.0553 8.769 10.0507 8.75511C10.047 8.74428 10.052 8.75289 10.052 8.792H11.052C11.052 8.57856 11.0035 8.29637 10.7762 8.0943L10.1118 8.8417ZM10.052 8.792V14.732H11.052V8.792H10.052ZM10.552 15.232H12.196V14.232H10.552V15.232ZM12.696 14.732V12.788H11.696V14.732H12.696ZM12.696 12.788C12.696 12.7673 12.6971 12.7527 12.6983 12.7433C12.6994 12.7339 12.7004 12.7317 12.6994 12.735C12.6974 12.7417 12.6852 12.7779 12.6456 12.8176L11.9384 12.1104C11.7341 12.3148 11.696 12.5883 11.696 12.788H12.696ZM12.6456 12.8176C12.6321 12.831 12.6185 12.841 12.6066 12.848C12.5949 12.8548 12.5864 12.8579 12.583 12.859C12.5775 12.8608 12.5896 12.856 12.628 12.856V11.856C12.4081 11.856 12.1417 11.9071 11.9384 12.1104L12.6456 12.8176ZM12.628 12.856H14.368V11.856H12.628V12.856ZM14.368 12.856C14.4071 12.856 14.4157 12.861 14.4049 12.8573C14.391 12.8527 14.3543 12.8366 14.3183 12.7962L15.0657 12.1318C14.8636 11.9045 14.5814 11.856 14.368 11.856V12.856ZM14.3598 12.8377C14.3194 12.8017 14.3033 12.765 14.2987 12.7511C14.295 12.7403 14.3 12.7489 14.3 12.788H15.3C15.3 12.5746 15.2515 12.2924 15.0242 12.0903L14.3598 12.8377ZM14.3 12.788V16.568H15.3V12.788H14.3ZM14.3 16.568C14.3 16.6064 14.2952 16.6185 14.297 16.613C14.2981 16.6096 14.3012 16.6011 14.308 16.5894C14.315 16.5775 14.325 16.5639 14.3384 16.5504L15.0456 17.2576C15.2489 17.0543 15.3 16.7879 15.3 16.568H14.3ZM14.3384 16.5504C14.3781 16.5108 14.4143 16.4986 14.421 16.4966C14.4243 16.4956 14.4221 16.4966 14.4127 16.4977C14.4033 16.4989 14.3887 16.5 14.368 16.5V17.5C14.5677 17.5 14.8412 17.4619 15.0456 17.2576L14.3384 16.5504ZM16.2677 16.904L15.894 17.2362L15.9136 17.2582L15.9356 17.2777L16.2677 16.904ZM16.2677 8.468L15.9142 8.11445L15.9142 8.11445L16.2677 8.468ZM22.4958 8.468L22.122 8.80018L22.1416 8.82216L22.1636 8.8417L22.4958 8.468ZM18.8597 10.628V10.128H18.3597V10.628H18.8597ZM18.8597 11.552H18.3597V12.052H18.8597V11.552ZM21.5238 11.66L21.15 11.9922L21.1696 12.0142L21.1916 12.0337L21.5238 11.66ZM18.8597 13.7V13.2H18.3597V13.7H18.8597ZM18.8597 14.732H18.3597V15.232H18.8597V14.732ZM22.4958 14.84L22.122 15.1722L22.1416 15.1942L22.1636 15.2137L22.4958 14.84ZM22.4958 16.904L22.8493 17.2576V17.2576L22.4958 16.904ZM22.1718 16.5H16.6038V17.5H22.1718V16.5ZM16.6038 16.5C16.5831 16.5 16.5679 16.4989 16.5574 16.4976C16.5469 16.4964 16.5426 16.4951 16.5431 16.4952C16.5444 16.4956 16.5693 16.5031 16.5999 16.5303L15.9356 17.2777C16.1393 17.4588 16.3966 17.5 16.6038 17.5V16.5ZM16.6415 16.5718C16.6686 16.6024 16.6761 16.6273 16.6765 16.6286C16.6767 16.6292 16.6754 16.6248 16.6741 16.6143C16.6729 16.6039 16.6718 16.5887 16.6718 16.568H15.6718C15.6718 16.7751 15.713 17.0325 15.894 17.2362L16.6415 16.5718ZM16.6718 16.568V8.792H15.6718V16.568H16.6718ZM16.6718 8.792C16.6718 8.77126 16.6729 8.75666 16.674 8.74733C16.6752 8.73793 16.6761 8.73571 16.6751 8.73904C16.6732 8.7457 16.6609 8.78192 16.6213 8.82155L15.9142 8.11445C15.7099 8.31877 15.6718 8.59229 15.6718 8.792H16.6718ZM16.6213 8.82155C16.6079 8.835 16.5943 8.84497 16.5824 8.85196C16.5707 8.8588 16.5621 8.86193 16.5588 8.86301C16.5533 8.86477 16.5654 8.86 16.6038 8.86V7.86C16.3838 7.86 16.1175 7.91115 15.9142 8.11445L16.6213 8.82155ZM16.6038 8.86H22.1718V7.86H16.6038V8.86ZM22.1718 8.86C22.2109 8.86 22.2195 8.86495 22.2086 8.86134C22.1947 8.85671 22.158 8.84063 22.122 8.80018L22.8695 8.13582C22.6674 7.90848 22.3852 7.86 22.1718 7.86V8.86ZM22.1636 8.8417C22.1231 8.80575 22.107 8.769 22.1024 8.75511C22.0988 8.74428 22.1038 8.75289 22.1038 8.792H23.1038C23.1038 8.57856 23.0553 8.29637 22.8279 8.0943L22.1636 8.8417ZM22.1038 8.792V10.196H23.1038V8.792H22.1038ZM22.1038 10.196C22.1038 10.2344 22.099 10.2465 22.1007 10.241C22.1018 10.2376 22.1049 10.2291 22.1118 10.2174C22.1188 10.2055 22.1287 10.1919 22.1422 10.1784L22.8493 10.8856C23.0526 10.6823 23.1038 10.4159 23.1038 10.196H22.1038ZM22.1422 10.1784C22.1818 10.1388 22.218 10.1266 22.2247 10.1246C22.228 10.1236 22.2258 10.1246 22.2164 10.1257C22.2071 10.1269 22.1925 10.128 22.1718 10.128V11.128C22.3715 11.128 22.645 11.0899 22.8493 10.8856L22.1422 10.1784ZM22.1718 10.128H18.8597V11.128H22.1718V10.128ZM18.3597 10.628V11.552H19.3597V10.628H18.3597ZM18.8597 12.052H21.1998V11.052H18.8597V12.052ZM21.1998 12.052C21.2389 12.052 21.2475 12.057 21.2366 12.0533C21.2227 12.0487 21.186 12.0326 21.15 11.9922L21.8975 11.3278C21.6954 11.1005 21.4132 11.052 21.1998 11.052V12.052ZM21.1916 12.0337C21.1511 11.9977 21.135 11.961 21.1304 11.9471C21.1268 11.9363 21.1318 11.9449 21.1318 11.984H22.1318C22.1318 11.7706 22.0833 11.4884 21.8559 11.2863L21.1916 12.0337ZM21.1318 11.984V13.268H22.1318V11.984H21.1318ZM21.1318 13.268C21.1318 13.3064 21.127 13.3185 21.1287 13.313C21.1298 13.3096 21.1329 13.3011 21.1398 13.2894C21.1468 13.2775 21.1567 13.2639 21.1702 13.2504L21.8773 13.9576C22.0806 13.7543 22.1318 13.4879 22.1318 13.268H21.1318ZM21.1702 13.2504C21.2098 13.2108 21.246 13.1986 21.2527 13.1966C21.256 13.1956 21.2538 13.1966 21.2444 13.1977C21.2351 13.1989 21.2205 13.2 21.1998 13.2V14.2C21.3995 14.2 21.673 14.1619 21.8773 13.9576L21.1702 13.2504ZM21.1998 13.2H18.8597V14.2H21.1998V13.2ZM18.3597 13.7V14.732H19.3597V13.7H18.3597ZM18.8597 15.232H22.1718V14.232H18.8597V15.232ZM22.1718 15.232C22.2109 15.232 22.2195 15.237 22.2086 15.2333C22.1947 15.2287 22.158 15.2126 22.122 15.1722L22.8695 14.5078C22.6674 14.2805 22.3852 14.232 22.1718 14.232V15.232ZM22.1636 15.2137C22.1231 15.1777 22.107 15.141 22.1024 15.1271C22.0988 15.1163 22.1038 15.1249 22.1038 15.164H23.1038C23.1038 14.9506 23.0553 14.6684 22.8279 14.4663L22.1636 15.2137ZM22.1038 15.164V16.568H23.1038V15.164H22.1038ZM22.1038 16.568C22.1038 16.6064 22.099 16.6185 22.1007 16.613C22.1018 16.6096 22.1049 16.6011 22.1118 16.5894C22.1188 16.5775 22.1287 16.5639 22.1422 16.5504L22.8493 17.2576C23.0526 17.0543 23.1038 16.7879 23.1038 16.568H22.1038ZM22.1422 16.5504C22.1818 16.5108 22.218 16.4986 22.2247 16.4966C22.228 16.4956 22.2258 16.4966 22.2164 16.4977C22.2071 16.4989 22.1925 16.5 22.1718 16.5V17.5C22.3715 17.5 22.645 17.4619 22.8493 17.2576L22.1422 16.5504ZM24.1193 16.904L23.7456 17.2362L23.7651 17.2582L23.7871 17.2777L24.1193 16.904ZM24.1193 8.468L23.7658 8.11445V8.11445L24.1193 8.468ZM26.6393 8.468L26.2656 8.80018L26.2851 8.82216L26.3071 8.8417L26.6393 8.468ZM26.7473 14.732H26.2473V15.232H26.7473V14.732ZM28.3913 14.732V15.232H28.8913V14.732H28.3913ZM28.4873 12.464L28.1338 12.1104V12.1104L28.4873 12.464ZM30.8873 12.464L30.5136 12.7962L30.5331 12.8182L30.5551 12.8377L30.8873 12.464ZM30.8873 16.904L31.2409 17.2576V17.2576L30.8873 16.904ZM30.5633 16.5H24.4553V17.5H30.5633V16.5ZM24.4553 16.5C24.4346 16.5 24.4194 16.4989 24.409 16.4976C24.3985 16.4964 24.3941 16.4951 24.3947 16.4952C24.396 16.4956 24.4209 16.5031 24.4515 16.5303L23.7871 17.2777C23.9909 17.4588 24.2482 17.5 24.4553 17.5V16.5ZM24.493 16.5718C24.5202 16.6024 24.5277 16.6273 24.5281 16.6286C24.5282 16.6292 24.5269 16.6248 24.5257 16.6143C24.5244 16.6039 24.5233 16.5887 24.5233 16.568H23.5233C23.5233 16.7751 23.5645 17.0325 23.7456 17.2362L24.493 16.5718ZM24.5233 16.568V8.792H23.5233V16.568H24.5233ZM24.5233 8.792C24.5233 8.77126 24.5244 8.75666 24.5256 8.74733C24.5267 8.73793 24.5277 8.73571 24.5267 8.73904C24.5247 8.7457 24.5125 8.78192 24.4729 8.82155L23.7658 8.11445C23.5614 8.31877 23.5233 8.59229 23.5233 8.792H24.5233ZM24.4729 8.82155C24.4594 8.835 24.4458 8.84497 24.4339 8.85196C24.4222 8.8588 24.4137 8.86193 24.4103 8.86301C24.4049 8.86477 24.4169 8.86 24.4553 8.86V7.86C24.2354 7.86 23.9691 7.91115 23.7658 8.11445L24.4729 8.82155ZM24.4553 8.86H26.3153V7.86H24.4553V8.86ZM26.3153 8.86C26.3544 8.86 26.363 8.86495 26.3522 8.86134C26.3383 8.85671 26.3016 8.84063 26.2656 8.80018L27.013 8.13582C26.8109 7.90848 26.5288 7.86 26.3153 7.86V8.86ZM26.3071 8.8417C26.2667 8.80575 26.2506 8.769 26.246 8.75511C26.2424 8.74428 26.2473 8.75289 26.2473 8.792H27.2473C27.2473 8.57856 27.1988 8.29637 26.9715 8.0943L26.3071 8.8417ZM26.2473 8.792V14.732H27.2473V8.792H26.2473ZM26.7473 15.232H28.3913V14.232H26.7473V15.232ZM28.8913 14.732V12.788H27.8913V14.732H28.8913ZM28.8913 12.788C28.8913 12.7673 28.8924 12.7527 28.8936 12.7433C28.8947 12.7339 28.8957 12.7317 28.8947 12.735C28.8927 12.7417 28.8805 12.7779 28.8409 12.8176L28.1338 12.1104C27.9294 12.3148 27.8913 12.5883 27.8913 12.788H28.8913ZM28.8409 12.8176C28.8274 12.831 28.8138 12.841 28.8019 12.848C28.7902 12.8548 28.7817 12.8579 28.7783 12.859C28.7729 12.8608 28.7849 12.856 28.8233 12.856V11.856C28.6034 11.856 28.3371 11.9071 28.1338 12.1104L28.8409 12.8176ZM28.8233 12.856H30.5633V11.856H28.8233V12.856ZM30.5633 12.856C30.6024 12.856 30.611 12.861 30.6002 12.8573C30.5863 12.8527 30.5496 12.8366 30.5136 12.7962L31.261 12.1318C31.0589 11.9045 30.7768 11.856 30.5633 11.856V12.856ZM30.5551 12.8377C30.5147 12.8017 30.4986 12.765 30.494 12.7511C30.4904 12.7403 30.4953 12.7489 30.4953 12.788H31.4953C31.4953 12.5746 31.4468 12.2924 31.2195 12.0903L30.5551 12.8377ZM30.4953 12.788V16.568H31.4953V12.788H30.4953ZM30.4953 16.568C30.4953 16.6064 30.4905 16.6185 30.4923 16.613C30.4934 16.6096 30.4965 16.6011 30.5034 16.5894C30.5103 16.5775 30.5203 16.5639 30.5338 16.5504L31.2409 17.2576C31.4442 17.0543 31.4953 16.7879 31.4953 16.568H30.4953ZM30.5338 16.5504C30.5734 16.5108 30.6096 16.4986 30.6163 16.4966C30.6196 16.4956 30.6174 16.4966 30.608 16.4977C30.5987 16.4989 30.5841 16.5 30.5633 16.5V17.5C30.763 17.5 31.0365 17.4619 31.2409 17.2576L30.5338 16.5504ZM32.4631 16.904L32.0894 17.2362L32.1089 17.2582L32.1309 17.2777L32.4631 16.904ZM32.4631 8.468L32.1095 8.11445V8.11445L32.4631 8.468ZM38.6911 8.468L38.3174 8.80018L38.3369 8.82216L38.3589 8.8417L38.6911 8.468ZM35.0551 10.628V10.128H34.5551V10.628H35.0551ZM35.0551 11.552H34.5551V12.052H35.0551V11.552ZM37.7191 11.66L37.3454 11.9922L37.3649 12.0142L37.3869 12.0337L37.7191 11.66ZM35.0551 13.7V13.2H34.5551V13.7H35.0551ZM35.0551 14.732H34.5551V15.232H35.0551V14.732ZM38.6911 14.84L38.3174 15.1722L38.3369 15.1942L38.3589 15.2137L38.6911 14.84ZM38.6911 16.904L39.0446 17.2576V17.2576L38.6911 16.904ZM38.3671 16.5H32.7991V17.5H38.3671V16.5ZM32.7991 16.5C32.7784 16.5 32.7632 16.4989 32.7527 16.4976C32.7423 16.4964 32.7379 16.4951 32.7384 16.4952C32.7397 16.4956 32.7647 16.5031 32.7952 16.5303L32.1309 17.2777C32.3346 17.4588 32.5919 17.5 32.7991 17.5V16.5ZM32.8368 16.5718C32.864 16.6024 32.8715 16.6273 32.8718 16.6286C32.872 16.6292 32.8707 16.6248 32.8694 16.6143C32.8682 16.6039 32.8671 16.5887 32.8671 16.568H31.8671C31.8671 16.7751 31.9083 17.0325 32.0894 17.2362L32.8368 16.5718ZM32.8671 16.568V8.792H31.8671V16.568H32.8671ZM32.8671 8.792C32.8671 8.77126 32.8682 8.75666 32.8693 8.74733C32.8705 8.73793 32.8714 8.73571 32.8705 8.73904C32.8685 8.7457 32.8562 8.78192 32.8166 8.82155L32.1095 8.11445C31.9052 8.31877 31.8671 8.59229 31.8671 8.792H32.8671ZM32.8166 8.82155C32.8032 8.835 32.7896 8.84497 32.7777 8.85196C32.766 8.8588 32.7574 8.86193 32.7541 8.86301C32.7486 8.86477 32.7607 8.86 32.7991 8.86V7.86C32.5792 7.86 32.3128 7.91115 32.1095 8.11445L32.8166 8.82155ZM32.7991 8.86H38.3671V7.86H32.7991V8.86ZM38.3671 8.86C38.4062 8.86 38.4148 8.86495 38.4039 8.86134C38.3901 8.85671 38.3533 8.84063 38.3174 8.80018L39.0648 8.13582C38.8627 7.90848 38.5805 7.86 38.3671 7.86V8.86ZM38.3589 8.8417C38.3184 8.80575 38.3024 8.769 38.2977 8.75511C38.2941 8.74428 38.2991 8.75289 38.2991 8.792H39.2991C39.2991 8.57856 39.2506 8.29637 39.0232 8.0943L38.3589 8.8417ZM38.2991 8.792V10.196H39.2991V8.792H38.2991ZM38.2991 10.196C38.2991 10.2344 38.2943 10.2465 38.296 10.241C38.2971 10.2376 38.3003 10.2291 38.3071 10.2174C38.3141 10.2055 38.3241 10.1919 38.3375 10.1784L39.0446 10.8856C39.2479 10.6823 39.2991 10.4159 39.2991 10.196H38.2991ZM38.3375 10.1784C38.3771 10.1388 38.4134 10.1266 38.42 10.1246C38.4234 10.1236 38.4211 10.1246 38.4117 10.1257C38.4024 10.1269 38.3878 10.128 38.3671 10.128V11.128C38.5668 11.128 38.8403 11.0899 39.0446 10.8856L38.3375 10.1784ZM38.3671 10.128H35.0551V11.128H38.3671V10.128ZM34.5551 10.628V11.552H35.5551V10.628H34.5551ZM35.0551 12.052H37.3951V11.052H35.0551V12.052ZM37.3951 12.052C37.4342 12.052 37.4428 12.057 37.4319 12.0533C37.4181 12.0487 37.3813 12.0326 37.3454 11.9922L38.0928 11.3278C37.8907 11.1005 37.6085 11.052 37.3951 11.052V12.052ZM37.3869 12.0337C37.3464 11.9977 37.3304 11.961 37.3257 11.9471C37.3221 11.9363 37.3271 11.9449 37.3271 11.984H38.3271C38.3271 11.7706 38.2786 11.4884 38.0512 11.2863L37.3869 12.0337ZM37.3271 11.984V13.268H38.3271V11.984H37.3271ZM37.3271 13.268C37.3271 13.3064 37.3223 13.3185 37.324 13.313C37.3251 13.3096 37.3283 13.3011 37.3351 13.2894C37.3421 13.2775 37.3521 13.2639 37.3655 13.2504L38.0726 13.9576C38.2759 13.7543 38.3271 13.4879 38.3271 13.268H37.3271ZM37.3655 13.2504C37.4051 13.2108 37.4414 13.1986 37.448 13.1966C37.4514 13.1956 37.4491 13.1966 37.4397 13.1977C37.4304 13.1989 37.4158 13.2 37.3951 13.2V14.2C37.5948 14.2 37.8683 14.1619 38.0726 13.9576L37.3655 13.2504ZM37.3951 13.2H35.0551V14.2H37.3951V13.2ZM34.5551 13.7V14.732H35.5551V13.7H34.5551ZM35.0551 15.232H38.3671V14.232H35.0551V15.232ZM38.3671 15.232C38.4062 15.232 38.4148 15.237 38.4039 15.2333C38.3901 15.2287 38.3533 15.2126 38.3174 15.1722L39.0648 14.5078C38.8627 14.2805 38.5805 14.232 38.3671 14.232V15.232ZM38.3589 15.2137C38.3184 15.1777 38.3024 15.141 38.2977 15.1271C38.2941 15.1163 38.2991 15.1249 38.2991 15.164H39.2991C39.2991 14.9506 39.2506 14.6684 39.0232 14.4663L38.3589 15.2137ZM38.2991 15.164V16.568H39.2991V15.164H38.2991ZM38.2991 16.568C38.2991 16.6064 38.2943 16.6185 38.296 16.613C38.2971 16.6096 38.3003 16.6011 38.3071 16.5894C38.3141 16.5775 38.3241 16.5639 38.3375 16.5504L39.0446 17.2576C39.2479 17.0543 39.2991 16.7879 39.2991 16.568H38.2991ZM38.3375 16.5504C38.3771 16.5108 38.4134 16.4986 38.42 16.4966C38.4234 16.4956 38.4211 16.4966 38.4117 16.4977C38.4024 16.4989 38.3878 16.5 38.3671 16.5V17.5C38.5668 17.5 38.8403 17.4619 39.0446 17.2576L38.3375 16.5504ZM40.3146 16.904L39.9409 17.2362L39.9605 17.2582L39.9824 17.2777L40.3146 16.904ZM40.3146 8.468L39.9611 8.11445V8.11445L40.3146 8.468ZM42.8346 8.468L42.4609 8.80018L42.4805 8.82216L42.5024 8.8417L42.8346 8.468ZM42.9426 11.552H42.4426V12.052H42.9426V11.552ZM43.4226 11.552V12.052H43.7483L43.8799 11.7542L43.4226 11.552ZM44.6586 8.756L45.1159 8.95816L45.1205 8.94779L45.1246 8.93722L44.6586 8.756ZM44.8866 8.456L45.1386 8.88789L45.1515 8.88034L45.164 8.87202L44.8866 8.456ZM47.3826 8.468L46.9666 8.74535L46.9743 8.7569L46.9826 8.768L47.3826 8.468ZM47.3706 8.756L47.8287 8.95651L47.8287 8.95641L47.3706 8.756ZM46.1466 11.552L45.6886 11.3515L45.3991 12.0127L46.1199 12.0513L46.1466 11.552ZM47.2146 12.032L46.8415 12.3648L46.8462 12.3701L46.8511 12.3753L47.2146 12.032ZM47.5146 16.904L47.8682 17.2576V17.2576L47.5146 16.904ZM45.0066 16.904L44.6329 17.2362L44.6525 17.2582L44.6744 17.2777L45.0066 16.904ZM42.9426 13.82V13.32H42.4426V13.82H42.9426ZM42.8346 16.904L42.4811 16.5504L42.8346 16.904ZM42.5106 16.5H40.6506V17.5H42.5106V16.5ZM40.6506 16.5C40.63 16.5 40.6147 16.4989 40.6043 16.4976C40.5938 16.4964 40.5895 16.4951 40.59 16.4952C40.5913 16.4956 40.6162 16.5031 40.6468 16.5303L39.9824 17.2777C40.1862 17.4588 40.4435 17.5 40.6506 17.5V16.5ZM40.6883 16.5718C40.7155 16.6024 40.723 16.6273 40.7234 16.6286C40.7235 16.6292 40.7223 16.6248 40.721 16.6143C40.7197 16.6039 40.7186 16.5887 40.7186 16.568H39.7186C39.7186 16.7751 39.7598 17.0325 39.9409 17.2362L40.6883 16.5718ZM40.7186 16.568V8.792H39.7186V16.568H40.7186ZM40.7186 8.792C40.7186 8.77126 40.7197 8.75666 40.7209 8.74733C40.722 8.73793 40.723 8.73571 40.722 8.73904C40.7201 8.7457 40.7078 8.78192 40.6682 8.82155L39.9611 8.11445C39.7567 8.31877 39.7186 8.59229 39.7186 8.792H40.7186ZM40.6682 8.82155C40.6547 8.835 40.6411 8.84497 40.6292 8.85196C40.6176 8.8588 40.609 8.86193 40.6056 8.86301C40.6002 8.86477 40.6122 8.86 40.6506 8.86V7.86C40.4307 7.86 40.1644 7.91115 39.9611 8.11445L40.6682 8.82155ZM40.6506 8.86H42.5106V7.86H40.6506V8.86ZM42.5106 8.86C42.5497 8.86 42.5583 8.86495 42.5475 8.86134C42.5336 8.85671 42.4969 8.84063 42.4609 8.80018L43.2083 8.13582C43.0063 7.90848 42.7241 7.86 42.5106 7.86V8.86ZM42.5024 8.8417C42.462 8.80575 42.4459 8.769 42.4413 8.75511C42.4377 8.74428 42.4426 8.75289 42.4426 8.792H43.4426C43.4426 8.57856 43.3941 8.29637 43.1668 8.0943L42.5024 8.8417ZM42.4426 8.792V11.552H43.4426V8.792H42.4426ZM42.9426 12.052H43.4226V11.052H42.9426V12.052ZM43.8799 11.7542L45.1159 8.95816L44.2013 8.55384L42.9653 11.3498L43.8799 11.7542ZM45.1246 8.93722C45.1395 8.89907 45.1515 8.8811 45.1557 8.87554C45.1591 8.87106 45.1542 8.87876 45.1386 8.88789L44.6347 8.02411C44.4092 8.15566 44.2738 8.36593 44.1926 8.57478L45.1246 8.93722ZM45.164 8.87202C45.1555 8.87769 45.1745 8.86 45.2586 8.86V7.86C45.0387 7.86 44.8098 7.90631 44.6093 8.03997L45.164 8.87202ZM45.2586 8.86H47.1066V7.86H45.2586V8.86ZM47.1066 8.86C47.1342 8.86 47.1249 8.86414 47.0954 8.85262C47.06 8.83877 47.0072 8.80628 46.9666 8.74535L47.7986 8.19065C47.6139 7.91346 47.3106 7.86 47.1066 7.86V8.86ZM46.9826 8.768C46.9242 8.69015 46.9143 8.61033 46.9161 8.56718C46.9175 8.53194 46.926 8.52482 46.9125 8.55559L47.8287 8.95641C47.902 8.78896 48.0014 8.45975 47.7826 8.168L46.9826 8.768ZM46.9126 8.55549L45.6886 11.3515L46.6047 11.7525L47.8287 8.95651L46.9126 8.55549ZM46.1199 12.0513C46.4539 12.0692 46.6781 12.1816 46.8415 12.3648L47.5878 11.6992C47.2232 11.2904 46.7354 11.0828 46.1734 11.0527L46.1199 12.0513ZM46.8511 12.3753C47.0176 12.5516 47.1226 12.8031 47.1226 13.184H48.1226C48.1226 12.6049 47.9556 12.0884 47.5781 11.6887L46.8511 12.3753ZM47.1226 13.184V16.568H48.1226V13.184H47.1226ZM47.1226 16.568C47.1226 16.6064 47.1179 16.6185 47.1196 16.613C47.1207 16.6096 47.1238 16.6011 47.1307 16.5894C47.1377 16.5775 47.1476 16.5639 47.1611 16.5504L47.8682 17.2576C48.0715 17.0543 48.1226 16.7879 48.1226 16.568H47.1226ZM47.1611 16.5504C47.2007 16.5108 47.2369 16.4986 47.2436 16.4966C47.2469 16.4956 47.2447 16.4966 47.2353 16.4977C47.226 16.4989 47.2114 16.5 47.1906 16.5V17.5C47.3903 17.5 47.6639 17.4619 47.8682 17.2576L47.1611 16.5504ZM47.1906 16.5H45.3426V17.5H47.1906V16.5ZM45.3426 16.5C45.322 16.5 45.3067 16.4989 45.2963 16.4976C45.2858 16.4964 45.2815 16.4951 45.282 16.4952C45.2833 16.4956 45.3082 16.5031 45.3388 16.5303L44.6744 17.2777C44.8782 17.4588 45.1355 17.5 45.3426 17.5V16.5ZM45.3803 16.5718C45.4075 16.6024 45.415 16.6273 45.4154 16.6286C45.4155 16.6292 45.4143 16.6248 45.413 16.6143C45.4117 16.6039 45.4106 16.5887 45.4106 16.568H44.4106C44.4106 16.7751 44.4518 17.0325 44.6329 17.2362L45.3803 16.5718ZM45.4106 16.568V14.228H44.4106V16.568H45.4106ZM45.4106 14.228C45.4106 14.0185 45.3573 13.7859 45.1883 13.5958L44.4409 14.2602C44.4323 14.2505 44.4253 14.2404 44.42 14.2309C44.4148 14.2216 44.4119 14.214 44.4104 14.2094C44.4076 14.2007 44.4106 14.2048 44.4106 14.228H45.4106ZM45.1883 13.5958C45.0009 13.385 44.748 13.32 44.5266 13.32V14.32C44.545 14.32 44.5392 14.3227 44.5191 14.3152C44.496 14.3065 44.4664 14.2888 44.4409 14.2602L45.1883 13.5958ZM44.5266 13.32H42.9426V14.32H44.5266V13.32ZM42.4426 13.82V16.568H43.4426V13.82H42.4426ZM42.4426 16.568C42.4426 16.6064 42.4379 16.6185 42.4396 16.613C42.4407 16.6096 42.4438 16.6011 42.4507 16.5894C42.4577 16.5775 42.4676 16.5639 42.4811 16.5504L43.1882 17.2576C43.3915 17.0543 43.4426 16.7879 43.4426 16.568H42.4426ZM42.4811 16.5504C42.5207 16.5108 42.5569 16.4986 42.5636 16.4966C42.5669 16.4956 42.5647 16.4966 42.5553 16.4977C42.546 16.4989 42.5314 16.5 42.5106 16.5V17.5C42.7103 17.5 42.9839 17.4619 43.1882 17.2576L42.4811 16.5504ZM52.3037 10.88L51.8468 10.6769L51.8348 10.704L51.8261 10.7323L52.3037 10.88ZM51.7397 12.704L51.2621 12.5563L51.0618 13.204H51.7397V12.704ZM53.6237 12.704V13.204H54.3017L54.1014 12.5563L53.6237 12.704ZM53.0597 10.88L53.5374 10.7323L53.5287 10.704L53.5167 10.6769L53.0597 10.88ZM52.9518 10.724L52.5982 11.0776L52.6178 11.0971L52.6394 11.1144L52.9518 10.724ZM52.3997 10.724L52.0874 10.3336L52.0658 10.3509L52.0462 10.3704L52.3997 10.724ZM51.5117 16.904L51.1582 16.5504L51.5117 16.904ZM49.0877 16.904L48.714 17.2362L48.7336 17.2582L48.7556 17.2777L49.0877 16.904ZM49.0998 12.572L48.6153 12.4478L48.6126 12.4596L49.0998 12.572ZM49.4598 11.48L49.9264 11.6595L49.9266 11.6589L49.4598 11.48ZM50.5037 8.756L50.9708 8.935L50.9752 8.92241L50.5037 8.756ZM50.7197 8.456L50.4577 8.03017L50.45 8.03493L50.4424 8.03997L50.7197 8.456ZM54.7158 8.456L54.4384 8.87202L54.446 8.87707L54.4537 8.88183L54.7158 8.456ZM54.9437 8.756L54.4721 8.92247L54.4769 8.93494L54.9437 8.756ZM55.9878 11.48L55.5209 11.6589L55.5211 11.6595L55.9878 11.48ZM56.3358 12.572L55.8484 12.6845L55.8514 12.6962L56.3358 12.572ZM56.3478 16.904L56.7013 17.2576V17.2576L56.3478 16.904ZM53.8517 16.904L53.4982 17.2576L53.5178 17.2771L53.5394 17.2944L53.8517 16.904ZM53.7438 14.888H54.2438V14.388H53.7438V14.888ZM51.6198 14.888V14.388H51.1198V14.888H51.6198ZM51.8261 10.7323L51.2621 12.5563L52.2174 12.8517L52.7814 11.0277L51.8261 10.7323ZM51.7397 13.204H53.6237V12.204H51.7397V13.204ZM54.1014 12.5563L53.5374 10.7323L52.5821 11.0277L53.1461 12.8517L54.1014 12.5563ZM53.5167 10.6769C53.4681 10.5676 53.3913 10.4353 53.2641 10.3336L52.6394 11.1144C52.6139 11.094 52.6011 11.0765 52.5977 11.0716C52.5942 11.0666 52.5966 11.069 52.6028 11.0831L53.5167 10.6769ZM53.3053 10.3704C53.1734 10.2385 53.0034 10.176 52.8317 10.176V11.176C52.7994 11.176 52.7575 11.1704 52.7121 11.1522C52.666 11.1338 52.6276 11.107 52.5982 11.0776L53.3053 10.3704ZM52.8317 10.176H52.5317V11.176H52.8317V10.176ZM52.5317 10.176C52.3623 10.176 52.2097 10.2358 52.0874 10.3336L52.7121 11.1144C52.6936 11.1293 52.6674 11.1456 52.6336 11.1579C52.5995 11.1703 52.5645 11.176 52.5317 11.176V10.176ZM52.0462 10.3704C51.95 10.4666 51.8881 10.5841 51.8468 10.6769L52.7607 11.0831C52.7652 11.0728 52.769 11.0649 52.7721 11.0591C52.7751 11.0532 52.777 11.05 52.7776 11.049C52.7782 11.048 52.7769 11.0502 52.7735 11.0548C52.7701 11.0592 52.7635 11.0674 52.7533 11.0776L52.0462 10.3704ZM51.1198 16.568C51.1198 16.6064 51.115 16.6185 51.1167 16.613C51.1178 16.6096 51.1209 16.6011 51.1278 16.5894C51.1348 16.5775 51.1447 16.5639 51.1582 16.5504L51.8653 17.2576C52.0686 17.0543 52.1198 16.7879 52.1198 16.568H51.1198ZM51.1582 16.5504C51.1978 16.5108 51.234 16.4986 51.2407 16.4966C51.244 16.4956 51.2418 16.4966 51.2324 16.4977C51.2231 16.4989 51.2085 16.5 51.1878 16.5V17.5C51.3875 17.5 51.661 17.4619 51.8653 17.2576L51.1582 16.5504ZM51.1878 16.5H49.4238V17.5H51.1878V16.5ZM49.4238 16.5C49.4031 16.5 49.3879 16.4989 49.3774 16.4976C49.3669 16.4964 49.3626 16.4951 49.3631 16.4952C49.3644 16.4956 49.3893 16.5031 49.4199 16.5303L48.7556 17.2777C48.9593 17.4588 49.2166 17.5 49.4238 17.5V16.5ZM49.4615 16.5718C49.4886 16.6024 49.4961 16.6273 49.4965 16.6286C49.4967 16.6292 49.4954 16.6248 49.4941 16.6143C49.4929 16.6039 49.4917 16.5887 49.4917 16.568H48.4917C48.4917 16.7751 48.533 17.0325 48.714 17.2362L49.4615 16.5718ZM49.4917 16.568V13.4H48.4917V16.568H49.4917ZM49.4917 13.4C49.4917 13.208 49.5208 12.971 49.5869 12.6844L48.6126 12.4596C48.5347 12.797 48.4917 13.112 48.4917 13.4H49.4917ZM49.5841 12.6962C49.6578 12.4085 49.771 12.0637 49.9264 11.6595L48.9931 11.3005C48.8285 11.7283 48.7017 12.1115 48.6154 12.4478L49.5841 12.6962ZM49.9266 11.6589L50.9706 8.93494L50.0369 8.57706L48.9929 11.3011L49.9266 11.6589ZM50.9752 8.92241C50.986 8.89181 50.9955 8.87667 50.9995 8.87115C51.0029 8.86648 51.0023 8.86856 50.9971 8.87203L50.4424 8.03997C50.2359 8.17761 50.1071 8.37746 50.0323 8.58959L50.9752 8.92241ZM50.9818 8.88183C50.9861 8.87919 51.0202 8.86 51.1157 8.86V7.86C50.8913 7.86 50.6614 7.90481 50.4577 8.03017L50.9818 8.88183ZM51.1157 8.86H54.3438V7.86H51.1157V8.86ZM54.3438 8.86C54.4279 8.86 54.4469 8.87769 54.4384 8.87202L54.9931 8.03998C54.7926 7.9063 54.5636 7.86 54.3438 7.86V8.86ZM54.4537 8.88183C54.4516 8.88055 54.4509 8.87925 54.4527 8.88154C54.455 8.88464 54.463 8.89621 54.4723 8.92241L55.4152 8.58959C55.3364 8.36608 55.1962 8.16456 54.9778 8.03017L54.4537 8.88183ZM54.4769 8.93494L55.5209 11.6589L56.4546 11.3011L55.4106 8.57706L54.4769 8.93494ZM55.5211 11.6595C55.6757 12.0614 55.7834 12.4021 55.8486 12.6844L56.8229 12.4596C56.7441 12.1179 56.6198 11.7306 56.4544 11.3005L55.5211 11.6595ZM55.8514 12.6962C55.9243 12.9805 55.9557 13.2134 55.9557 13.4H56.9557C56.9557 13.1066 56.9072 12.7875 56.8201 12.4478L55.8514 12.6962ZM55.9557 13.4V16.568H56.9557V13.4H55.9557ZM55.9557 16.568C55.9557 16.6064 55.951 16.6185 55.9527 16.613C55.9538 16.6096 55.9569 16.6011 55.9638 16.5894C55.9708 16.5775 55.9808 16.5639 55.9942 16.5504L56.7013 17.2576C56.9046 17.0543 56.9557 16.7879 56.9557 16.568H55.9557ZM55.9942 16.5504C56.0338 16.5108 56.07 16.4986 56.0767 16.4966C56.08 16.4956 56.0778 16.4966 56.0684 16.4977C56.0591 16.4989 56.0445 16.5 56.0238 16.5V17.5C56.2235 17.5 56.497 17.4619 56.7013 17.2576L55.9942 16.5504ZM56.0238 16.5H54.2118V17.5H56.0238V16.5ZM54.2118 16.5C54.1634 16.5 54.1385 16.495 54.1306 16.4929C54.1236 16.491 54.1398 16.4941 54.1641 16.5136L53.5394 17.2944C53.7457 17.4595 53.9983 17.5 54.2118 17.5V16.5ZM54.2053 16.5504C54.2188 16.5639 54.2287 16.5775 54.2357 16.5894C54.2426 16.6011 54.2457 16.6096 54.2468 16.613C54.2485 16.6185 54.2438 16.6064 54.2438 16.568H53.2438C53.2438 16.7879 53.2949 17.0543 53.4982 17.2576L54.2053 16.5504ZM54.2438 16.568V14.888H53.2438V16.568H54.2438ZM53.7438 14.388H51.6198V15.388H53.7438V14.388ZM51.1198 14.888V16.568H52.1198V14.888H51.1198ZM60.6494 10.52V10.02H60.1494V10.52H60.6494ZM60.6494 12.056H60.1494V12.556H60.6494V12.056ZM61.9694 11.9L62.3805 12.1846L62.3853 12.1776L62.39 12.1704L61.9694 11.9ZM61.9694 10.688L61.5488 10.9584L61.5534 10.9656L61.5583 10.9726L61.9694 10.688ZM58.0334 16.904L57.6597 17.2362L57.6792 17.2582L57.7012 17.2777L58.0334 16.904ZM58.0334 8.468L57.6798 8.11445V8.11445L58.0334 8.468ZM64.2134 8.924L63.8405 9.25725L63.8481 9.26544L64.2134 8.924ZM64.5734 11.78L64.1145 11.5812L64.1114 11.5888L64.5734 11.78ZM64.0574 12.284L63.864 11.8229L62.0869 12.5681L64.0022 12.7809L64.0574 12.284ZM65.1014 12.812L64.7238 13.1399L64.7288 13.1454L65.1014 12.812ZM65.4014 16.904L65.7549 17.2576V17.2576L65.4014 16.904ZM62.8814 16.904L62.5077 17.2362L62.5272 17.2582L62.5492 17.2777L62.8814 16.904ZM62.6774 14.348L62.273 14.6421L62.2883 14.6631L62.3057 14.6825L62.6774 14.348ZM60.6494 14.216V13.716H60.1494V14.216H60.6494ZM60.5414 16.904L60.1878 16.5504L60.5414 16.904ZM60.1494 10.52V12.056H61.1494V10.52H60.1494ZM60.6494 12.556H61.5494V11.556H60.6494V12.556ZM61.5494 12.556C61.8146 12.556 62.1674 12.4924 62.3805 12.1846L61.5583 11.6154C61.573 11.5941 61.5901 11.5775 61.6063 11.5655C61.6219 11.554 61.6334 11.5493 61.6363 11.5483C61.6388 11.5473 61.6339 11.5495 61.6187 11.5517C61.6036 11.554 61.581 11.556 61.5494 11.556V12.556ZM62.39 12.1704C62.5235 11.9627 62.5774 11.7283 62.5774 11.492H61.5774C61.5774 11.5757 61.5593 11.6133 61.5488 11.6296L62.39 12.1704ZM62.5774 11.492V11.084H61.5774V11.492H62.5774ZM62.5774 11.084C62.5774 10.8493 62.524 10.6108 62.3805 10.4034L61.5583 10.9726C61.5587 10.9732 61.5774 10.9987 61.5774 11.084H62.5774ZM62.39 10.4176C62.1825 10.0948 61.8273 10.02 61.5494 10.02V11.02C61.5794 11.02 61.6001 11.022 61.6132 11.0241C61.6262 11.0262 61.6291 11.028 61.6247 11.0262C61.6199 11.0243 61.6076 11.0186 61.5921 11.0064C61.5762 10.9938 61.561 10.9774 61.5488 10.9584L62.39 10.4176ZM61.5494 10.02H60.6494V11.02H61.5494V10.02ZM60.2174 16.5H58.3694V17.5H60.2174V16.5ZM58.3694 16.5C58.3487 16.5 58.3335 16.4989 58.323 16.4976C58.3126 16.4964 58.3082 16.4951 58.3087 16.4952C58.31 16.4956 58.335 16.5031 58.3656 16.5303L57.7012 17.2777C57.9049 17.4588 58.1623 17.5 58.3694 17.5V16.5ZM58.4071 16.5718C58.4343 16.6024 58.4418 16.6273 58.4421 16.6286C58.4423 16.6292 58.441 16.6248 58.4397 16.6143C58.4385 16.6039 58.4374 16.5887 58.4374 16.568H57.4374C57.4374 16.7751 57.4786 17.0325 57.6597 17.2362L58.4071 16.5718ZM58.4374 16.568V8.792H57.4374V16.568H58.4374ZM58.4374 8.792C58.4374 8.77126 58.4385 8.75666 58.4396 8.74733C58.4408 8.73793 58.4418 8.73571 58.4408 8.73904C58.4388 8.7457 58.4266 8.78192 58.3869 8.82155L57.6798 8.11445C57.4755 8.31877 57.4374 8.59229 57.4374 8.792H58.4374ZM58.3869 8.82155C58.3735 8.835 58.3599 8.84497 58.348 8.85196C58.3363 8.8588 58.3278 8.86193 58.3244 8.86301C58.3189 8.86477 58.331 8.86 58.3694 8.86V7.86C58.1495 7.86 57.8831 7.91115 57.6798 8.11445L58.3869 8.82155ZM58.3694 8.86H62.3654V7.86H58.3694V8.86ZM62.3654 8.86C63.2224 8.86 63.6514 9.04554 63.8405 9.25716L64.5862 8.59083C64.1033 8.05046 63.3004 7.86 62.3654 7.86V8.86ZM63.8481 9.26544C64.0906 9.52486 64.2294 9.8751 64.2294 10.364H65.2294C65.2294 9.6689 65.0241 9.05914 64.5786 8.58256L63.8481 9.26544ZM64.2294 10.364V10.916H65.2294V10.364H64.2294ZM64.2294 10.916C64.2294 11.2023 64.1849 11.4191 64.1146 11.5812L65.0322 11.9788C65.1699 11.6609 65.2294 11.3017 65.2294 10.916H64.2294ZM64.1114 11.5888C64.0696 11.6897 63.9999 11.7659 63.864 11.8229L64.2507 12.7451C64.6108 12.5941 64.8851 12.3343 65.0354 11.9712L64.1114 11.5888ZM64.0022 12.7809C64.3201 12.8163 64.5491 12.9386 64.7239 13.1398L65.4789 12.4842C65.1256 12.0774 64.6586 11.8477 64.1126 11.7871L64.0022 12.7809ZM64.7288 13.1454C64.9006 13.3375 65.0094 13.6128 65.0094 14.024H66.0094C66.0094 13.4272 65.8462 12.8945 65.474 12.4786L64.7288 13.1454ZM65.0094 14.024V16.568H66.0094V14.024H65.0094ZM65.0094 16.568C65.0094 16.6064 65.0046 16.6185 65.0064 16.613C65.0074 16.6096 65.0106 16.6011 65.0174 16.5894C65.0244 16.5775 65.0344 16.5639 65.0478 16.5504L65.7549 17.2576C65.9582 17.0543 66.0094 16.7879 66.0094 16.568H65.0094ZM65.0478 16.5504C65.0875 16.5108 65.1237 16.4986 65.1303 16.4966C65.1337 16.4956 65.1314 16.4966 65.122 16.4977C65.1127 16.4989 65.0981 16.5 65.0774 16.5V17.5C65.2771 17.5 65.5506 17.4619 65.7549 17.2576L65.0478 16.5504ZM65.0774 16.5H63.2174V17.5H65.0774V16.5ZM63.2174 16.5C63.1967 16.5 63.1815 16.4989 63.171 16.4976C63.1606 16.4964 63.1562 16.4951 63.1567 16.4952C63.158 16.4956 63.183 16.5031 63.2136 16.5303L62.5492 17.2777C62.7529 17.4588 63.0103 17.5 63.2174 17.5V16.5ZM63.2551 16.5718C63.2823 16.6024 63.2898 16.6273 63.2901 16.6286C63.2903 16.6292 63.289 16.6248 63.2877 16.6143C63.2865 16.6039 63.2854 16.5887 63.2854 16.568H62.2854C62.2854 16.7751 62.3266 17.0325 62.5077 17.2362L63.2551 16.5718ZM63.2854 16.568V14.732H62.2854V16.568H63.2854ZM63.2854 14.732C63.2854 14.5062 63.2424 14.2283 63.049 14.0135L62.3057 14.6825C62.2797 14.6536 62.275 14.6322 62.2771 14.6394C62.2794 14.6477 62.2854 14.6759 62.2854 14.732H63.2854ZM63.0817 14.0539C62.8811 13.778 62.5677 13.716 62.3294 13.716V14.716C62.3729 14.716 62.3799 14.7221 62.365 14.7165C62.3565 14.7133 62.3416 14.7064 62.3239 14.6935C62.3059 14.6802 62.2882 14.6629 62.273 14.6421L63.0817 14.0539ZM62.3294 13.716H60.6494V14.716H62.3294V13.716ZM60.1494 14.216V16.568H61.1494V14.216H60.1494ZM60.1494 16.568C60.1494 16.6064 60.1446 16.6185 60.1464 16.613C60.1474 16.6096 60.1506 16.6011 60.1574 16.5894C60.1644 16.5775 60.1744 16.5639 60.1878 16.5504L60.8949 17.2576C61.0982 17.0543 61.1494 16.7879 61.1494 16.568H60.1494ZM60.1878 16.5504C60.2275 16.5108 60.2637 16.4986 60.2703 16.4966C60.2737 16.4956 60.2714 16.4966 60.262 16.4977C60.2527 16.4989 60.2381 16.5 60.2174 16.5V17.5C60.4171 17.5 60.6906 17.4619 60.8949 17.2576L60.1878 16.5504ZM68.2921 16.904L67.9184 17.2362L67.9379 17.2582L67.9599 17.2777L68.2921 16.904ZM68.1961 10.676H68.6961V10.176H68.1961V10.676ZM66.0961 10.58L65.7224 10.9122L65.7419 10.9342L65.7639 10.9537L66.0961 10.58ZM66.0961 8.468L65.7425 8.11445V8.11445L66.0961 8.468ZM73.0921 8.468L72.7184 8.80018L72.7379 8.82216L72.7599 8.8417L73.0921 8.468ZM71.0041 10.676V10.176H70.5041V10.676H71.0041ZM70.8961 16.904L70.5425 16.5504H70.5425L70.8961 16.904ZM70.5721 16.5H68.6281V17.5H70.5721V16.5ZM68.6281 16.5C68.6074 16.5 68.5922 16.4989 68.5817 16.4976C68.5713 16.4964 68.5669 16.4951 68.5674 16.4952C68.5687 16.4956 68.5937 16.5031 68.6242 16.5303L67.9599 17.2777C68.1636 17.4588 68.4209 17.5 68.6281 17.5V16.5ZM68.6658 16.5718C68.693 16.6024 68.7005 16.6273 68.7008 16.6286C68.701 16.6292 68.6997 16.6248 68.6984 16.6143C68.6972 16.6039 68.6961 16.5887 68.6961 16.568H67.6961C67.6961 16.7751 67.7373 17.0325 67.9184 17.2362L68.6658 16.5718ZM68.6961 16.568V10.676H67.6961V16.568H68.6961ZM68.1961 10.176H66.4321V11.176H68.1961V10.176ZM66.4321 10.176C66.4114 10.176 66.3962 10.1749 66.3857 10.1736C66.3752 10.1724 66.3709 10.1711 66.3714 10.1712C66.3727 10.1716 66.3977 10.1791 66.4282 10.2063L65.7639 10.9537C65.9676 11.1348 66.2249 11.176 66.4321 11.176V10.176ZM66.4698 10.2478C66.497 10.2784 66.5045 10.3033 66.5048 10.3046C66.505 10.3052 66.5037 10.3008 66.5024 10.2903C66.5012 10.2799 66.5001 10.2647 66.5001 10.244H65.5001C65.5001 10.4511 65.5413 10.7085 65.7224 10.9122L66.4698 10.2478ZM66.5001 10.244V8.792H65.5001V10.244H66.5001ZM66.5001 8.792C66.5001 8.77126 66.5012 8.75666 66.5023 8.74733C66.5035 8.73793 66.5044 8.73571 66.5035 8.73904C66.5015 8.7457 66.4893 8.78192 66.4496 8.82155L65.7425 8.11445C65.5382 8.31877 65.5001 8.59229 65.5001 8.792H66.5001ZM66.4496 8.82155C66.4362 8.835 66.4226 8.84497 66.4107 8.85196C66.399 8.8588 66.3904 8.86193 66.3871 8.86301C66.3816 8.86477 66.3937 8.86 66.4321 8.86V7.86C66.2122 7.86 65.9458 7.91115 65.7425 8.11445L66.4496 8.82155ZM66.4321 8.86H72.7681V7.86H66.4321V8.86ZM72.7681 8.86C72.8072 8.86 72.8158 8.86495 72.8049 8.86134C72.7911 8.85671 72.7543 8.84063 72.7184 8.80018L73.4658 8.13582C73.2637 7.90848 72.9815 7.86 72.7681 7.86V8.86ZM72.7599 8.8417C72.7194 8.80575 72.7034 8.769 72.6987 8.75511C72.6951 8.74428 72.7001 8.75289 72.7001 8.792H73.7001C73.7001 8.57856 73.6516 8.29637 73.4242 8.0943L72.7599 8.8417ZM72.7001 8.792V10.244H73.7001V8.792H72.7001ZM72.7001 10.244C72.7001 10.2824 72.6953 10.2945 72.6971 10.289C72.6981 10.2856 72.7013 10.2771 72.7081 10.2654C72.7151 10.2535 72.7251 10.2399 72.7385 10.2264L73.4456 10.9336C73.6489 10.7303 73.7001 10.4639 73.7001 10.244H72.7001ZM72.7385 10.2264C72.7781 10.1868 72.8144 10.1746 72.821 10.1726C72.8243 10.1716 72.8221 10.1726 72.8127 10.1737C72.8034 10.1749 72.7888 10.176 72.7681 10.176V11.176C72.9678 11.176 73.2413 11.1379 73.4456 10.9336L72.7385 10.2264ZM72.7681 10.176H71.0041V11.176H72.7681V10.176ZM70.5041 10.676V16.568H71.5041V10.676H70.5041ZM70.5041 16.568C70.5041 16.6064 70.4993 16.6185 70.501 16.613C70.5021 16.6096 70.5053 16.6011 70.5121 16.5894C70.5191 16.5775 70.5291 16.5639 70.5425 16.5504L71.2496 17.2576C71.4529 17.0543 71.5041 16.7879 71.5041 16.568H70.5041ZM70.5425 16.5504C70.5821 16.5108 70.6184 16.4986 70.625 16.4966C70.6284 16.4956 70.6261 16.4966 70.6167 16.4977C70.6074 16.4989 70.5928 16.5 70.5721 16.5V17.5C70.7718 17.5 71.0453 17.4619 71.2496 17.2576L70.5425 16.5504Z" fill="black" mask="url(#path-1-outside-1_28_2)"/>
</svg>
